<svg width="32" height="32" viewBox="110 0 80 80" fill="none" xmlns="http://www.w3.org/2000/svg">
  <defs>
    <filter id="gold-glow" x="-20%" y="-20%" width="140%" height="140%">
      <feGaussianBlur stdDeviation="1" result="blur" />
      <feComposite in="SourceGraphic" in2="blur" operator="over" />
    </filter>
    <pattern id="gold-hatch" width="4" height="4" patternUnits="userSpaceOnUse" patternTransform="rotate(0)">
      <line x1="0" y1="2" x2="4" y2="2" stroke="#dfb455" stroke-width="0.8" />
    </pattern>
  </defs>

  <g filter="url(#gold-glow)">
    <!-- Segmented Circular target outer radius r=26, inner r=12 centered around 150,40 -->
    <path
      d="M 150 14 A 26 26 0 0 1 176 40 L 162 40 A 12 12 0 0 0 150 28 Z"
      fill="#dfb455"
      stroke="#0b0f19"
      stroke-width="1"
    />
    <path
      d="M 174 44 A 26 26 0 0 1 140 66 L 140 52 A 12 12 0 0 0 160 44 Z"
      fill="#b89133"
      stroke="#0b0f19"
      stroke-width="1"
    />
    <path
      d="M 136 64 A 26 26 0 0 1 124 40 L 138 40 A 12 12 0 0 0 144 54 Z"
      fill="url(#gold-hatch)"
      stroke="#dfb455"
      stroke-width="1"
    />
    <path
      d="M 136 64 A 26 26 0 0 1 124 40 L 138 40 A 12 12 0 0 0 144 54 Z"
      fill="none"
      stroke="#0b0f19"
      stroke-width="1"
    />
    <path
      d="M 126 36 A 26 26 0 0 1 146 14 L 148 28 A 12 12 0 0 0 138 36 Z"
      fill="#eedaa2"
      stroke="#0b0f19"
      stroke-width="1"
    />
    <circle cx="150" cy="40" r="14" fill="#080a11" stroke="#dfb455" stroke-width="1.8" />
    <circle cx="150" cy="40" r="6" fill="#dfb455" />
  </g>
</svg>
